<svg width="14" height="14" fill="none" xmlns="http://www.w3.org/2000/svg"><path fill-rule="evenodd" clip-rule="evenodd" d="M6.642.706a.583.583 0 0 1 .716 0l5.25 4.084c.142.11.225.28.225.46v6.417a1.75 1.75 0 0 1-1.75 1.75H2.917a1.75 1.75 0 0 1-1.75-1.75V5.25c0-.18.083-.35.225-.46L6.642.706Zm-4.309 4.83v6.13a.583.583 0 0 0 .584.584h8.166a.583.583 0 0 0 .584-.583V5.535L7 1.905l-4.667 3.63Z" fill="#fff"/><path fill-rule="evenodd" clip-rule="evenodd" d="M4.667 7c0-.322.26-.583.583-.583h3.5c.322 0 .583.26.583.583v5.833a.583.583 0 1 1-1.166 0v-5.25H5.833v5.25a.583.583 0 1 1-1.166 0V7Z" fill="#fff"/></svg>