<svg width="20" height="20" fill="none" xmlns="http://www.w3.org/2000/svg"><path d="M10 20a9.811 9.811 0 0 1-3.887-.791c-1.237-.527-2.301-1.237-3.193-2.129-.892-.892-1.602-1.956-2.129-3.193A9.81 9.81 0 0 1 0 10c0-1.354.264-2.65.791-3.887S2.028 3.812 2.92 2.92C3.812 2.028 4.876 1.318 6.113.79A9.81 9.81 0 0 1 10 0a9.81 9.81 0 0 1 3.887.791c1.237.527 2.301 1.237 3.193 2.129.892.892 1.602 1.956 2.129 3.193A9.811 9.811 0 0 1 20 10c0 1.354-.264 2.65-.791 3.887s-1.237 2.301-2.129 3.193c-.892.892-1.956 1.602-3.193 2.129A9.811 9.811 0 0 1 10 20Zm5-13.75c0-.339-.12-.632-.361-.879A1.192 1.192 0 0 0 13.75 5h-7.5c-.339 0-.632.124-.879.371S5 5.911 5 6.25V7.5h2.227c.755-.833 1.68-1.25 2.773-1.25 1.094 0 2.018.417 2.773 1.25H15V6.25ZM7.5 10c0 .69.244 1.28.732 1.768A2.409 2.409 0 0 0 10 12.5c.69 0 1.28-.244 1.768-.732A2.409 2.409 0 0 0 12.5 10c0-.69-.244-1.28-.732-1.768A2.409 2.409 0 0 0 10 7.5c-.69 0-1.28.244-1.768.732A2.409 2.409 0 0 0 7.5 10ZM15 8.75h-1.484c.156.43.234.846.234 1.25 0 1.042-.365 1.927-1.094 2.656-.729.73-1.614 1.094-2.656 1.094s-1.927-.365-2.656-1.094C6.614 11.927 6.25 11.042 6.25 10c0-.404.078-.82.234-1.25H5v5c0 .352.12.648.361.889.241.24.537.361.889.361h7.5c.352 0 .648-.12.889-.361.24-.241.361-.537.361-.889v-5Z" fill="#BDBDBD"/></svg>