<svg width="153" height="175" fill="none" xmlns="http://www.w3.org/2000/svg"><path d="M37.969 34.875c0 1.73-.323 3.219-.969 4.469a9.7 9.7 0 0 1-2.531 3.187c-1.063.875-2.292 1.594-3.688 2.157a26.48 26.48 0 0 1-4.312 1.28c-1.5.313-3.01.522-4.532.626-1.5.104-2.906.156-4.218.156-1.292 0-2.636-.052-4.032-.156a39.685 39.685 0 0 1-4.124-.469 38.179 38.179 0 0 1-4.063-.906 24.15 24.15 0 0 1-3.781-1.469L1.656 3.5a35.337 35.337 0 0 1 3.719-1.281 37.287 37.287 0 0 1 4-.969 40.38 40.38 0 0 1 4.094-.594 36.782 36.782 0 0 1 3.937-.219c1.48 0 2.969.094 4.469.282 1.52.187 2.98.5 4.375.937a18.83 18.83 0 0 1 3.906 1.719 12.172 12.172 0 0 1 3.157 2.563A10.947 10.947 0 0 1 35.437 9.5c.521 1.354.782 2.917.782 4.688 0 1.166-.167 2.26-.5 3.28a9.11 9.11 0 0 1-1.438 2.75A9.147 9.147 0 0 1 32 22.314c-.896.562-1.906.979-3.031 1.25a13.29 13.29 0 0 1 3.687 1.562 10.634 10.634 0 0 1 2.844 2.5c.792.98 1.396 2.083 1.813 3.313.437 1.229.656 2.541.656 3.937ZM22.094 17.062c0-.604-.125-1.114-.375-1.53a3.318 3.318 0 0 0-.938-1.063 3.534 3.534 0 0 0-1.187-.594 3.96 3.96 0 0 0-1.125-.188c-.417 0-.823.063-1.219.188-.396.125-.781.27-1.156.438l-.188 6.937c.48 0 1.073-.042 1.781-.125a7.489 7.489 0 0 0 2.032-.531 4.586 4.586 0 0 0 1.687-1.25c.459-.563.688-1.323.688-2.282ZM17.656 27.25c-.604 0-1.187.063-1.75.188l-.125 7.125c.313.062.615.124.906.187.313.042.615.063.907.063.437 0 .916-.042 1.437-.126a4.667 4.667 0 0 0 1.469-.562 3.515 3.515 0 0 0 1.125-1.156c.313-.48.469-1.115.469-1.907 0-.791-.157-1.437-.469-1.937-.292-.5-.656-.885-1.094-1.156a3.582 3.582 0 0 0-1.437-.563c-.521-.104-1-.156-1.438-.156Zm56.25-6.5a39.75 39.75 0 0 1-.375 5.438c-3.562.229-7.104.604-10.625 1.125l-10.562 1.5c.541 1.5 1.385 2.697 2.531 3.593 1.167.896 2.552 1.344 4.156 1.344.834 0 1.74-.156 2.719-.469 1-.312 1.99-.698 2.969-1.156.979-.48 1.916-.99 2.812-1.531a54.018 54.018 0 0 0 2.313-1.469l-1.5 14.188a13.607 13.607 0 0 1-2.656 1.593c-.938.438-1.917.792-2.938 1.063-1.02.27-2.052.468-3.094.593a25.692 25.692 0 0 1-3.062.188c-2.063 0-3.948-.281-5.657-.844a17.145 17.145 0 0 1-4.656-2.343 17.954 17.954 0 0 1-3.625-3.594 20.914 20.914 0 0 1-2.593-4.5 25.984 25.984 0 0 1-1.563-5.157 28.61 28.61 0 0 1-.531-5.5c0-1.937.177-3.875.531-5.812a29.7 29.7 0 0 1 1.594-5.594 24.345 24.345 0 0 1 2.718-4.969 19.632 19.632 0 0 1 3.844-4.03 17.147 17.147 0 0 1 4.938-2.688C53.448 1.073 55.49.75 57.719.75c1.854 0 3.541.26 5.062.781 1.542.5 2.907 1.209 4.094 2.125A13.9 13.9 0 0 1 70 6.875 17.731 17.731 0 0 1 72.188 11a22.79 22.79 0 0 1 1.28 4.719c.292 1.646.438 3.323.438 5.031Zm-12.5-1.625c0-.583-.062-1.177-.187-1.781a5.442 5.442 0 0 0-.625-1.688c-.271-.5-.636-.906-1.094-1.219-.458-.333-1.031-.5-1.719-.5-.833 0-1.573.23-2.218.688-.626.438-1.167 1-1.626 1.688a9.86 9.86 0 0 0-1.124 2.187c-.292.792-.51 1.52-.657 2.188l9.25-.875v-.688ZM108 30c0 2.854-.5 5.323-1.5 7.406-.979 2.063-2.333 3.771-4.062 5.125-1.709 1.334-3.72 2.323-6.032 2.969-2.291.625-4.76.938-7.406.938-1.02 0-2.146-.136-3.375-.407a44.317 44.317 0 0 1-3.688-1 73.327 73.327 0 0 1-3.624-1.312 85.99 85.99 0 0 1-3.063-1.344l1.375-12.25c1.77 1.063 3.73 1.875 5.875 2.438 2.167.541 4.292.812 6.375.812.396 0 .875-.01 1.438-.031a7.718 7.718 0 0 0 1.593-.282c.521-.166.959-.406 1.313-.718.354-.313.531-.76.531-1.344 0-.396-.125-.73-.375-1a2.557 2.557 0 0 0-.969-.688 5.078 5.078 0 0 0-1.344-.406c-.5-.104-.99-.177-1.468-.218-.48-.042-.927-.063-1.344-.063h-1c-1.792 0-3.427-.281-4.906-.844-1.459-.562-2.719-1.354-3.781-2.375-1.042-1.041-1.855-2.291-2.438-3.75-.583-1.479-.875-3.114-.875-4.906 0-2.458.49-4.656 1.469-6.594 1-1.958 2.323-3.614 3.969-4.969 1.666-1.375 3.572-2.427 5.718-3.156A20.549 20.549 0 0 1 93.062.937c1.021 0 2.073.042 3.157.125 1.083.063 2.156.188 3.219.375 1.083.188 2.135.428 3.156.72 1.021.29 1.989.655 2.906 1.093l-1.188 12.688a35.894 35.894 0 0 0-4.468-1.188 21.408 21.408 0 0 0-4.531-.5c-.271 0-.626.01-1.063.031-.417 0-.865.031-1.344.094a11.54 11.54 0 0 0-1.406.219c-.48.104-.906.25-1.281.437a2.332 2.332 0 0 0-.906.688c-.23.291-.334.635-.313 1.031.02.458.188.813.5 1.063.333.25.75.437 1.25.562.52.104 1.083.156 1.688.156.624 0 1.24-.01 1.843-.031a58.902 58.902 0 0 1 1.688-.094c.52-.041.948-.052 1.281-.031 1.667.104 3.167.458 4.5 1.063 1.333.604 2.458 1.406 3.375 2.406.937 1 1.646 2.198 2.125 3.593.5 1.375.75 2.896.75 4.563Zm34.375-28.063-.313 13.25-9.312.376-1.125 29-13.187.687-1.188-29-9.312.5.374-14.75 34.063-.063ZM38 145.189c0 2.02-.302 3.812-.906 5.374a13.342 13.342 0 0 1-2.5 4.126 14.714 14.714 0 0 1-3.688 2.968 24.895 24.895 0 0 1-4.562 1.969c-1.604.5-3.271.875-5 1.125a42.9 42.9 0 0 1-5.094.375v13.313H1.687V167.5c.021-2.25.032-4.479.032-6.688.02-2.229.031-4.468.031-6.718l.063-6.969c.041-2.542.052-5.083.03-7.625-.02-2.542.032-5.104.157-7.688a58.142 58.142 0 0 1 8-1.781 56.11 56.11 0 0 1 8.25-.593c1.604 0 3.208.135 4.813.406 1.604.25 3.135.656 4.593 1.218a19.511 19.511 0 0 1 4.094 2.126 13.661 13.661 0 0 1 3.281 3c.917 1.166 1.636 2.5 2.157 4 .541 1.5.812 3.166.812 5Zm-13.875 1.062c0-1.354-.417-2.406-1.25-3.156-.813-.771-1.875-1.156-3.188-1.156a8.06 8.06 0 0 0-1.375.124c-.458.063-.895.146-1.312.25l-.375 9.126c.292.041.573.062.844.062h.843c.75 0 1.47-.125 2.157-.375a5.914 5.914 0 0 0 1.875-1.063 5.452 5.452 0 0 0 1.281-1.656c.333-.646.5-1.364.5-2.156Zm43.063 11.188-1.313 13.874-26.313 2.063 1-44.625h16.25L54.5 157.438h12.688Zm40.874 13.874-15.5 2-1.874-7.062h-7.126L82 173.312l-15.938-1.562L78.5 130.125l17.375-.875 12.187 42.062Zm-18.5-14.624-2.374-10.876-2.313 10.876h4.688Zm57.938 1.5c0 2.354-.031 4.687-.094 7a260.453 260.453 0 0 1-.218 6.937l-18-.313a256.915 256.915 0 0 0 1.624-11.031c.459-3.687.688-7.406.688-11.156a43.07 43.07 0 0 0-.156-3.344 30.867 30.867 0 0 0-.282-2.343 12.981 12.981 0 0 0-.468-2.219c-.188-.667-.427-1.209-.719-1.625-.271-.438-.604-.656-1-.656-.708 0-1.313.208-1.813.624-.479.417-.885.959-1.218 1.626a10.277 10.277 0 0 0-.75 2.187 24.786 24.786 0 0 0-.438 2.437 51.113 51.113 0 0 0-.187 2.313 60.925 60.925 0 0 0-.031 1.75 959.504 959.504 0 0 0-.25 11c-.063 3.625-.146 7.292-.25 11l-15.938.687c.417-7.354.812-14.666 1.188-21.937.395-7.271.708-14.583.937-21.937l14.75-.75-.125 5a21.001 21.001 0 0 1 1.875-2 12.144 12.144 0 0 1 2.187-1.594 10.533 10.533 0 0 1 2.438-1.063 9.243 9.243 0 0 1 2.75-.406c1.771 0 3.323.292 4.656.875a10.566 10.566 0 0 1 3.438 2.375c.958 1 1.76 2.187 2.406 3.563a23.76 23.76 0 0 1 1.562 4.343 38.49 38.49 0 0 1 .907 4.844c.208 1.667.343 3.313.406 4.937a92.62 92.62 0 0 1 .125 4.719v4.157Z" fill="#fff"/><path d="m34.688 65.938-.313 13.25-9.313.374-1.125 29-13.187.688-1.188-29-9.312.5L.625 66l34.063-.063Zm39.78 20.124c0 1.896-.218 3.73-.656 5.5a21.096 21.096 0 0 1-1.906 4.938 20.1 20.1 0 0 1-3 4.25 18.783 18.783 0 0 1-3.969 3.281 19.501 19.501 0 0 1-4.78 2.157c-1.73.5-3.563.75-5.5.75-1.876 0-3.667-.24-5.376-.719a20.844 20.844 0 0 1-4.75-2 20.29 20.29 0 0 1-4.031-3.125 20.794 20.794 0 0 1-3.063-4.063 22.233 22.233 0 0 1-1.968-4.812 20.532 20.532 0 0 1-.688-5.344c0-1.813.219-3.583.657-5.313a21.98 21.98 0 0 1 1.874-4.937 21.734 21.734 0 0 1 3-4.25 19.881 19.881 0 0 1 3.907-3.344 19.097 19.097 0 0 1 4.718-2.187c1.688-.521 3.47-.781 5.344-.781 3.021 0 5.771.468 8.25 1.406 2.5.937 4.625 2.281 6.375 4.031 1.771 1.73 3.136 3.833 4.094 6.313.98 2.458 1.469 5.208 1.469 8.25Zm-13.874.813a8.34 8.34 0 0 0-.407-2.594 6.716 6.716 0 0 0-1.124-2.25 5.55 5.55 0 0 0-1.876-1.594c-.729-.416-1.572-.624-2.53-.624-.98 0-1.855.177-2.626.53a6.072 6.072 0 0 0-2 1.47 6.312 6.312 0 0 0-1.25 2.156 7.62 7.62 0 0 0-.437 2.594c0 .874.125 1.75.375 2.624.25.876.625 1.667 1.125 2.376a6.041 6.041 0 0 0 1.843 1.718c.75.438 1.615.656 2.594.656.98 0 1.854-.187 2.625-.562a6.182 6.182 0 0 0 2-1.563 7.346 7.346 0 0 0 1.25-2.28c.292-.855.438-1.74.438-2.657ZM113.906 66a618.978 618.978 0 0 0-2.406 21.906c-.667 7.25-1.302 14.552-1.906 21.906l-12.813.938.563-4.812a6.598 6.598 0 0 1-1.469 1.25 8.585 8.585 0 0 1-1.75.874c-.625.209-1.27.365-1.938.469a11.94 11.94 0 0 1-1.906.094 10.712 10.712 0 0 1-4-.813 13.928 13.928 0 0 1-3.437-2.124 17.419 17.419 0 0 1-2.813-3.094 22.82 22.82 0 0 1-2.125-3.719c-.562-1.313-1-2.646-1.312-4a18.682 18.682 0 0 1-.438-3.938c0-1.874.031-3.812.094-5.812a118.5 118.5 0 0 1 .406-6.063c.188-2.02.427-4.02.719-6 .313-1.979.698-3.874 1.156-5.687 2.542.125 5.094.24 7.656.344 2.563.104 5.115.135 7.657.094-.48 1.812-.959 3.635-1.438 5.468a117.285 117.285 0 0 0-1.25 5.5 71.148 71.148 0 0 0-.906 5.531 45.81 45.81 0 0 0-.344 5.626c0 .437.021 1.062.063 1.874.041.813.146 1.615.312 2.407.188.791.459 1.49.813 2.094.375.583.896.874 1.562.874.792 0 1.5-.333 2.125-1 .625-.687 1.177-1.604 1.656-2.75.48-1.145.886-2.468 1.22-3.968.353-1.5.645-3.063.874-4.688.25-1.646.448-3.302.594-4.969.146-1.666.25-3.229.313-4.687.083-1.48.135-2.802.156-3.969.041-1.166.062-2.073.062-2.719A23.228 23.228 0 0 0 99.531 66a266.794 266.794 0 0 0 8.063.125h3.125a81.386 81.386 0 0 0 3.187-.125Zm38.5 13.875c0 1.625-.146 3.104-.437 4.438a12.97 12.97 0 0 1-1.313 3.624A13.005 13.005 0 0 1 148.312 91c-.958.938-2.114 1.833-3.468 2.688l7.437 13.25-14.062 2.75-4.813-13.313-3.875.125-.562 13h-13.438c.104-4.75.198-9.479.281-14.188.105-4.708.219-9.437.344-14.187l.125-7.125c.042-2.354.125-4.73.25-7.125a40.873 40.873 0 0 1 4.313-1.344 38.101 38.101 0 0 1 4.25-.812 43.1 43.1 0 0 1 4.344-.406 80.573 80.573 0 0 1 4.531-.126c2.375 0 4.666.334 6.875 1 2.229.646 4.198 1.626 5.906 2.938a14.636 14.636 0 0 1 4.094 4.906c1.041 1.959 1.562 4.24 1.562 6.844Zm-14 1c0-.875-.125-1.677-.375-2.406a4.891 4.891 0 0 0-1.062-1.875 4.49 4.49 0 0 0-1.75-1.25c-.688-.313-1.5-.469-2.438-.469-.416 0-.823.031-1.219.094a7.086 7.086 0 0 0-1.156.219l-.5 11.624h.75c.896 0 1.802-.114 2.719-.343a7.951 7.951 0 0 0 2.5-1.063 5.682 5.682 0 0 0 1.813-1.844c.479-.75.718-1.645.718-2.687Z" fill="#EC1F46"/></svg>